<?xml version="1.0" encoding="UTF-8" standalone="no"?>
<svg
   xmlns:dc="http://purl.org/dc/elements/1.1/"
   xmlns:cc="http://creativecommons.org/ns#"
   xmlns:rdf="http://www.w3.org/1999/02/22-rdf-syntax-ns#"
   xmlns:svg="http://www.w3.org/2000/svg"
   xmlns="http://www.w3.org/2000/svg"
   version="1.1"
   id="svg2"
   height="20.842449"
   width="100.67853">
  <defs
     id="defs4" />
  <metadata
     id="metadata7">
    <rdf:RDF>
      <cc:Work
         rdf:about="">
        <dc:format>image/svg+xml</dc:format>
        <dc:type
           rdf:resource="http://purl.org/dc/dcmitype/StillImage" />
        <dc:title />
      </cc:Work>
    </rdf:RDF>
  </metadata>
  <g
     transform="translate(-18.889991,-972.68167)"
     id="layer1">
    <g
       id="text2816"
       style="font-style:normal;font-weight:normal;font-size:28.04546356px;font-family:'Bitstream Vera Sans';fill:#000000;fill-opacity:1;stroke:none">
      <path
         id="path6069"
         style="font-style:normal;font-variant:normal;font-weight:bold;font-stretch:normal;font-family:Junicode;-inkscape-font-specification:'Junicode Bold'"
         d="m 36.829561,990.2786 q 0.561457,1.58851 2.766203,1.58851 0.205411,0 0.205411,0.64362 0,0.62993 -0.205411,0.62993 -1.574819,-0.0959 -3.62893,-0.0959 -2.054111,0 -3.76587,0.0959 -0.205411,0 -0.205411,-0.62993 0,-0.64362 0.205411,-0.64362 1.314631,0 1.314631,-0.89012 0,-0.28757 -0.136941,-0.69839 l -1.369407,-4.06714 q -0.09586,-0.30127 -0.465599,-0.32866 l -5.107889,0 q -0.287576,0 -0.438211,0.39713 l -1.492654,4.01236 q -0.123246,0.32866 -0.123246,0.57515 0,0.99967 2.013029,0.99967 0.178023,0 0.178023,0.64362 0,0.62993 -0.178023,0.62993 -1.136609,-0.0959 -3.19072,-0.0959 -2.054111,0 -3.122249,0.0959 -0.191717,0 -0.191717,-0.62993 0,-0.64362 0.191717,-0.64362 2.0815,0 2.766203,-1.79392 l 5.066808,-13.25587 q 0.178023,-0.41082 0.178023,-0.52037 0,-0.10956 -0.205411,-0.30127 -0.191717,-0.19172 -0.191717,-0.31497 0,-0.20541 0.451904,-0.35604 0.451904,-0.15064 1.41049,-0.72579 0.972279,-0.57515 1.232466,-0.57515 0.451905,0 0.60254,0.65732 0.150634,0.64362 0.725785,2.24582 l 4.710762,13.35173 z m -7.490659,-11.85907 q -0.06847,-0.21911 -0.219105,-0.21911 -0.13694,0 -0.219105,0.21911 l -2.177358,5.94323 q -0.04108,0.10955 -0.05478,0.2191 0,0.15064 0.287576,0.15064 l 4.012363,0 q 0.383434,0 0.383434,-0.30127 0,-0.0822 -0.04108,-0.20541 L 29.3389,978.41953 Z" />
      <path
         id="path6071"
         style="font-style:normal;font-variant:normal;font-weight:bold;font-stretch:normal;font-family:Junicode;-inkscape-font-specification:'Junicode Bold'"
         d="m 48.08225,984.55447 q -0.50668,0 -0.766868,-0.39712 l -0.534069,-0.90381 q -0.534069,-0.80795 -1.533736,-0.80795 -1.10922,0 -1.930865,1.27355 -0.903808,1.39679 -0.903808,3.35504 0,1.82132 1.205078,3.10856 1.081832,1.1503 2.464933,1.1503 1.492655,0 2.560792,-0.75317 0.2328,-0.16433 0.629928,0.41082 0.356046,0.58884 0.123246,0.73948 l -1.122914,0.72578 q -1.588512,0.90381 -3.642623,0.90381 -1.917171,0 -3.437213,-1.35571 -1.91717,-1.68437 -1.91717,-4.25886 0,-2.32799 1.451572,-4.20408 1.862394,-2.41015 4.792925,-2.41015 1.8487,0 3.053779,0.61623 0.534069,0.27388 0.73948,0.61623 0.08216,0.21911 0.08216,0.54777 0,0.71209 -0.424516,1.16399 -0.479293,0.47929 -0.890115,0.47929 z" />
      <path
         id="path6073"
         style="font-style:normal;font-variant:normal;font-weight:bold;font-stretch:normal;font-family:Junicode;-inkscape-font-specification:'Junicode Bold'"
         d="m 62.693495,987.21112 q 0,2.86207 -1.684372,4.53274 -1.629594,1.6159 -4.491656,1.6159 -2.533404,0 -4.286245,-1.67067 -1.903476,-1.79393 -1.903476,-4.45058 0,-2.32799 1.506348,-4.05344 1.807618,-2.05411 4.655985,-2.05411 2.985308,0 4.80662,2.16366 1.396796,1.67068 1.396796,3.9165 z m -3.478295,0.0822 q 0,-2.51971 -0.972279,-3.99867 -0.725786,-1.10922 -1.725454,-1.10922 -1.122914,0 -1.903476,1.42418 -0.821645,1.49266 -0.821645,3.68371 0,2.5334 0.999668,3.9302 0.712092,0.98597 1.698065,0.98597 1.287243,0 2.054111,-1.56112 0.67101,-1.35572 0.67101,-3.35505 z" />
      <path
         id="path6075"
         style="font-style:normal;font-variant:normal;font-weight:bold;font-stretch:normal;font-family:Junicode;-inkscape-font-specification:'Junicode Bold'"
         d="m 77.020672,992.62028 q -0.109553,0.0274 -1.437878,0.28758 -0.356046,0.0685 -0.698398,0.13694 -0.766868,0.16433 -1.561124,0.42452 -0.178023,0.0548 -0.328658,0.0548 -0.205411,0 -0.205411,-0.61623 l 0,-0.64362 q 0,-0.31497 -0.164329,-0.31497 -0.164329,0 -0.36974,0.19172 -1.259855,1.21877 -3.368742,1.21877 -1.725454,0 -2.327993,-0.47929 -2.013029,-1.6159 -2.013029,-4.06714 l 0,-4.73815 q 0,-1.41049 -1.150302,-1.41049 -0.205411,0 -0.205411,-0.49298 0,-0.50669 0.205411,-0.50669 1.533736,0 3.067473,-0.24649 0.424516,-0.0685 0.684703,-0.0685 0.629928,0 0.629928,0.60254 -0.09586,1.34202 -0.09586,2.20475 l 0,4.68337 q 0,1.68437 0.684704,2.49232 0.383434,0.4519 1.342019,0.4519 0.876421,0 1.807618,-0.75317 0.73948,-0.60254 0.73948,-1.27355 l 0,-5.68304 q 0,-1.41049 -1.150302,-1.41049 -0.219105,0 -0.219105,-0.49298 0,-0.50669 0.219105,-0.50669 1.520042,0 3.135943,-0.26018 0.342352,-0.0548 0.534069,-0.0548 0.725786,0 0.725786,0.49299 -0.109553,1.30093 -0.109553,2.13627 l 0,5.5598 q 0,1.23246 0.136941,1.6022 0.191717,0.54777 0.725786,0.54777 0.178023,0 0.451904,-0.0685 0.219105,-0.0548 0.36974,0.43821 0.04108,0.19171 0.04108,0.31496 0,0.20541 -0.09586,0.24649 z" />
      <path
         id="path6077"
         style="font-style:normal;font-variant:normal;font-weight:bold;font-stretch:normal;font-family:Junicode;-inkscape-font-specification:'Junicode Bold'"
         d="m 81.62188,993.35976 q -1.999335,0 -3.286578,-0.82164 -0.383434,-0.9175 -0.383434,-3.02639 0,-0.26019 0.465598,-0.26019 0.520375,0 0.575151,0.2328 0.05478,0.73948 0.917503,1.73915 0.890115,1.04075 2.163664,1.04075 0.67101,0 1.232467,-0.57515 0.451904,-0.4656 0.451904,-1.02706 0,-1.64329 -2.355381,-2.27322 -2.423851,-0.64362 -3.245495,-2.05411 -0.410822,-0.71209 -0.410822,-1.67067 0,-1.56113 1.369407,-2.58818 1.273549,-0.94489 3.067473,-0.94489 1.684371,0 2.971614,0.49298 0.534069,1.43788 0.534069,2.61557 0,0.26019 -0.410823,0.26019 -0.43821,0 -0.479292,-0.15064 -0.246494,-0.69839 -1.095526,-1.54743 -0.561457,-0.54776 -1.711759,-0.54776 -0.835339,0 -1.355714,0.6847 -0.314963,0.42452 -0.301269,0.87642 0,1.36941 2.300604,1.94456 2.191052,0.54777 3.067473,1.60221 0.684703,0.83534 0.684703,2.14997 0,1.82131 -1.520042,2.93053 -1.273549,0.94489 -3.245495,0.9175 z" />
      <path
         id="path6079"
         style="font-style:normal;font-variant:normal;font-weight:bold;font-stretch:normal;font-family:Junicode;-inkscape-font-specification:'Junicode Bold'"
         d="m 96.521029,991.81233 q -1.47896,1.54743 -3.752177,1.54743 -2.999002,-0.0274 -3.450906,-2.50601 -0.08217,-0.45191 -0.08217,-0.99967 l 0,-6.58685 q 0,-0.42452 -0.424516,-0.42452 l -0.753174,0 q -0.219105,0 -0.219105,-0.50668 0,-0.50668 0.219105,-0.50668 0.835339,0 1.821312,-0.80795 0.944891,-0.78056 1.259855,-1.72545 0.05478,-0.16433 0.575151,-0.0137 0.602539,0.16432 0.684703,0.41082 l 0,1.28724 q 0,0.42452 0.424517,0.42452 l 2.944226,0 q 0.205411,0 0.205411,0.72578 0,0.71209 -0.205411,0.71209 l -2.944226,0 q -0.424517,0 -0.424517,0.42452 l 0,5.68304 q 0,1.65698 0.465599,2.17736 0.36974,0.42452 1.191384,0.42452 0.712092,0 1.739148,-0.64363 0.150635,-0.10955 0.520375,0.32866 0.246493,0.31497 0.246493,0.47929 0,0.0548 -0.04108,0.0959 z" />
      <path
         id="path6081"
         style="font-style:italic;font-variant:normal;font-weight:bold;font-stretch:normal;font-family:Junicode;-inkscape-font-specification:'Junicode Bold Italic';fill:#aa0000"
         d="m 100.87575,990.57987 q -0.0548,0.19171 -0.0548,0.30127 0,0.2328 0.34236,0.2328 0.35604,0 1.21877,-1.09553 0.15063,-0.19172 0.52037,0.15063 0.27388,0.2465 0.28758,0.38344 0,0.0548 -0.0411,0.10955 -0.87642,1.08183 -1.97195,1.91717 -1.09553,0.83534 -1.848701,0.83534 -1.383101,0 -1.383101,-1.71176 0,-0.4656 0.150635,-0.95858 l 2.013027,-6.55947 q 0.0548,-0.17802 0.0548,-0.28757 0,-0.27388 -0.26019,-0.27388 -0.260187,0 -1.328325,1.12291 -0.164329,0.16433 -0.520375,-0.19172 -0.246493,-0.24649 -0.246493,-0.38343 0,-0.0411 0.04108,-0.0959 0.862727,-1.05444 1.944559,-1.87609 1.081834,-0.82164 1.835004,-0.82164 1.42419,0 1.42419,1.72545 0,0.34235 -0.16433,0.87642 l -2.01303,6.60055 z m 4.1493,-13.14631 q 0,0.73948 -0.60254,1.25985 -0.58884,0.52038 -1.30093,0.52038 -1.94456,0 -1.94456,-2.0815 0,-0.68471 0.60254,-1.21878 0.60254,-0.53407 1.34202,-0.53407 1.91717,0 1.90347,2.05412 z" />
      <path
         id="path6083"
         style="font-style:italic;font-variant:normal;font-weight:bold;font-stretch:normal;font-family:Junicode;-inkscape-font-specification:'Junicode Bold Italic';fill:#aa0000"
         d="m 114.54243,989.92255 q -0.15063,0.65732 -0.16433,0.87642 0,0.30127 0.2328,0.30127 0.38344,0 1.28724,-1.16399 0.0959,-0.12325 0.30127,0 0.21911,0.10955 0.36974,0.31496 0.16433,0.20541 0.0822,0.32866 -2.01303,2.83467 -3.75218,2.83467 -0.79425,0 -1.05444,-0.49299 -0.26019,-0.49298 -0.26019,-1.39679 0,-0.27388 0.24649,-1.42419 l -0.16432,-0.0822 q -1.17769,1.3831 -2.45124,2.39646 -1.27355,0.99967 -2.49233,0.99967 -1.1503,0 -1.67067,-0.86273 -0.52038,-0.87642 -0.52038,-1.86239 0,-2.73882 2.49232,-6.02539 2.50602,-3.28658 5.31331,-3.28658 0.75317,0 1.47896,0.42452 l 1.27354,-5.327 q 0.13694,-0.58884 0.13694,-1.02706 0,-1.02705 -0.84903,-1.02705 -0.26019,0 -0.26019,-0.49299 0,-0.49298 0.26019,-0.49298 1.1503,0 2.46494,-0.36974 1.32832,-0.38344 1.43787,-0.38344 0.28758,0 0.28758,0.26019 0,0.0822 -0.0411,0.27388 l -3.98498,16.70677 z m -1.08183,-6.61424 q -0.56146,-0.80795 -1.3831,-0.80795 -1.56113,0 -3.04009,2.76621 -1.46526,2.7525 -1.46526,4.97094 0,1.28725 0.64362,1.28725 0.79426,0 2.46493,-1.80762 1.67068,-1.80762 1.90348,-2.75251 l 0.87642,-3.65632 z" />
    </g>
  </g>
</svg>
